<svg width="157" height="31" viewBox="0 0 157 31" fill="none" xmlns="http://www.w3.org/2000/svg">
<path d="M4.4 30V15.5167H0.794444V11.6667H4.49167V5.55555H9.10556V11.6667H12.9861V15.5167H9.19722V30H4.4ZM23.5177 30.55C21.501 30.55 19.7084 30.1222 18.1399 29.2667C16.5917 28.4111 15.3797 27.2398 14.5038 25.7528C13.6482 24.2454 13.2204 22.5444 13.2204 20.65C13.2204 18.8167 13.638 17.187 14.4732 15.7611C15.3288 14.3352 16.4797 13.2046 17.926 12.3694C19.3723 11.5343 20.9714 11.1167 22.7232 11.1167C24.5158 11.1167 26.1149 11.5241 27.5204 12.3389C28.9464 13.1537 30.0769 14.2741 30.9121 15.7C31.7473 17.1056 32.1649 18.7046 32.1649 20.4972V22.2389H20.7677C20.2584 22.2389 19.7593 22.2083 19.2704 22.1472C18.7815 22.0861 18.2927 22.0148 17.8038 21.9333C18.0482 23.2574 18.6899 24.3472 19.7288 25.2028C20.7677 26.038 22.0714 26.4556 23.6399 26.4556C24.801 26.4556 25.8501 26.2213 26.7871 25.7528C27.7241 25.2639 28.4982 24.6528 29.1093 23.9194L30.2093 28.4111C29.2927 29.1241 28.264 29.6537 27.1232 30C25.9825 30.3667 24.7806 30.55 23.5177 30.55ZM17.6815 18.9694C18.7204 18.7657 19.7491 18.6639 20.7677 18.6639H24.7093C25.2593 18.6639 25.7788 18.6843 26.2677 18.725C26.7565 18.7454 27.2251 18.8065 27.6732 18.9083C27.3677 17.7269 26.7667 16.7796 25.8704 16.0667C24.9945 15.3537 23.9352 14.9972 22.6927 14.9972C21.4704 14.9972 20.4112 15.3639 19.5149 16.0972C18.6186 16.8306 18.0075 17.788 17.6815 18.9694ZM43.4059 30.55C41.5929 30.55 39.9327 30.112 38.4253 29.2361C36.9383 28.3602 35.7568 27.1889 34.8809 25.7222C34.005 24.2352 33.567 22.6056 33.567 20.8333C33.567 19.0407 34.005 17.4111 34.8809 15.9444C35.7568 14.4574 36.9383 13.2861 38.4253 12.4306C39.9327 11.5546 41.5929 11.1167 43.4059 11.1167C44.6892 11.1167 45.9013 11.3306 47.042 11.7583C48.1827 12.1861 49.1911 12.8074 50.067 13.6222L48.7837 18.6944C48.2744 17.8185 47.5716 17.0648 46.6753 16.4333C45.779 15.7815 44.7401 15.4556 43.5587 15.4556C42.5401 15.4556 41.6235 15.7 40.8087 16.1889C40.0142 16.6778 39.3827 17.3296 38.9142 18.1444C38.4661 18.9389 38.242 19.8352 38.242 20.8333C38.242 21.8111 38.4661 22.7074 38.9142 23.5222C39.3827 24.337 40.0142 24.9889 40.8087 25.4778C41.6235 25.9463 42.5401 26.1806 43.5587 26.1806C44.7401 26.1806 45.779 25.8648 46.6753 25.2333C47.5716 24.6019 48.2744 23.838 48.7837 22.9417L50.067 28.0444C49.1911 28.8593 48.1827 29.4806 47.042 29.9083C45.9013 30.3361 44.6892 30.55 43.4059 30.55ZM52.2578 30V0.666666H57.0551V13.3472C57.7273 12.6139 58.5013 12.0639 59.3773 11.6972C60.2736 11.3102 61.2208 11.1167 62.2189 11.1167C63.5226 11.1167 64.7347 11.4324 65.8551 12.0639C66.9958 12.675 67.9125 13.5815 68.6051 14.7833C69.318 15.9852 69.6745 17.4315 69.6745 19.1222V30H64.8467V19.7639C64.8467 18.6435 64.5106 17.6454 63.8384 16.7694C63.1662 15.8935 62.2088 15.4556 60.9662 15.4556C59.9476 15.4556 59.0412 15.812 58.2467 16.525C57.4523 17.2176 57.0551 18.2769 57.0551 19.7028V30H52.2578ZM79.8251 30.9167L69.9862 11.6667H75.3334L78.4195 18.0833C78.7047 18.6333 78.9695 19.1833 79.2139 19.7333C79.4584 20.2833 79.7028 20.9148 79.9473 21.6278C80.1917 20.9148 80.4362 20.2833 80.6806 19.7333C80.9251 19.1833 81.1899 18.6333 81.4751 18.0833L84.5612 11.6667H89.6945L79.8251 30.9167ZM99.6617 30.55C97.6451 30.55 95.8525 30.1222 94.2839 29.2667C92.7358 28.4111 91.5238 27.2398 90.6478 25.7528C89.7923 24.2454 89.3645 22.5444 89.3645 20.65C89.3645 18.8167 89.7821 17.187 90.6173 15.7611C91.4728 14.3352 92.6238 13.2046 94.0701 12.3694C95.5163 11.5343 97.1154 11.1167 98.8673 11.1167C100.66 11.1167 102.259 11.5241 103.664 12.3389C105.09 13.1537 106.221 14.2741 107.056 15.7C107.891 17.1056 108.309 18.7046 108.309 20.4972V22.2389H96.9117C96.4025 22.2389 95.9034 22.2083 95.4145 22.1472C94.9256 22.0861 94.4367 22.0148 93.9478 21.9333C94.1923 23.2574 94.8339 24.3472 95.8728 25.2028C96.9117 26.038 98.2154 26.4556 99.7839 26.4556C100.945 26.4556 101.994 26.2213 102.931 25.7528C103.868 25.2639 104.642 24.6528 105.253 23.9194L106.353 28.4111C105.437 29.1241 104.408 29.6537 103.267 30C102.127 30.3667 100.925 30.55 99.6617 30.55ZM93.8256 18.9694C94.8645 18.7657 95.8932 18.6639 96.9117 18.6639H100.853C101.403 18.6639 101.923 18.6843 102.412 18.725C102.901 18.7454 103.369 18.8065 103.817 18.9083C103.512 17.7269 102.911 16.7796 102.014 16.0667C101.139 15.3537 100.079 14.9972 98.8367 14.9972C97.6145 14.9972 96.5552 15.3639 95.6589 16.0972C94.7626 16.8306 94.1515 17.788 93.8256 18.9694ZM110.719 30V11.6667H115.058V14.875C115.69 13.7954 116.505 12.9602 117.503 12.3694C118.501 11.7787 119.672 11.4833 121.017 11.4833L122.086 15.8222C121.699 15.7 121.261 15.6389 120.772 15.6389C119.183 15.6389 117.91 16.1481 116.953 17.1667C115.995 18.1852 115.517 19.6315 115.517 21.5056V30H110.719ZM129.531 30.55C128.369 30.55 127.178 30.3565 125.956 29.9694C124.733 29.562 123.756 28.9917 123.022 28.2583L124.244 23.6139C124.835 24.4694 125.63 25.1926 126.628 25.7833C127.646 26.3741 128.706 26.6694 129.806 26.6694C130.6 26.6694 131.181 26.5065 131.547 26.1806C131.934 25.8546 132.128 25.4472 132.128 24.9583C132.128 24.4083 131.934 24.0111 131.547 23.7667C131.16 23.5019 130.773 23.2981 130.386 23.1556L127.85 22.2083C127.32 21.9843 126.699 21.6889 125.986 21.3222C125.273 20.9352 124.652 20.3954 124.122 19.7028C123.613 18.9898 123.358 18.063 123.358 16.9222C123.358 15.8833 123.613 14.9259 124.122 14.05C124.631 13.1741 125.375 12.4713 126.353 11.9417C127.331 11.3917 128.492 11.1167 129.836 11.1167C131.058 11.1167 132.23 11.3306 133.35 11.7583C134.47 12.1657 135.316 12.675 135.886 13.2861L134.725 17.8083C134.093 16.912 133.309 16.2194 132.372 15.7306C131.456 15.2213 130.569 14.9667 129.714 14.9667C129.021 14.9667 128.492 15.1296 128.125 15.4556C127.779 15.7611 127.606 16.1278 127.606 16.5556C127.606 16.8611 127.728 17.1667 127.972 17.4722C128.217 17.7574 128.614 18.0019 129.164 18.2056L131.578 19.1222C132.209 19.3463 132.902 19.662 133.656 20.0694C134.409 20.4565 135.051 21.0065 135.581 21.7194C136.131 22.4324 136.406 23.4102 136.406 24.6528C136.406 26.3843 135.764 27.8 134.481 28.9C133.218 30 131.568 30.55 129.531 30.55ZM148.283 30.55C146.267 30.55 144.474 30.1222 142.906 29.2667C141.358 28.4111 140.145 27.2398 139.27 25.7528C138.414 24.2454 137.986 22.5444 137.986 20.65C137.986 18.8167 138.404 17.187 139.239 15.7611C140.095 14.3352 141.245 13.2046 142.692 12.3694C144.138 11.5343 145.737 11.1167 147.489 11.1167C149.282 11.1167 150.881 11.5241 152.286 12.3389C153.712 13.1537 154.843 14.2741 155.678 15.7C156.513 17.1056 156.931 18.7046 156.931 20.4972V22.2389H145.533C145.024 22.2389 144.525 22.2083 144.036 22.1472C143.547 22.0861 143.058 22.0148 142.57 21.9333C142.814 23.2574 143.456 24.3472 144.495 25.2028C145.533 26.038 146.837 26.4556 148.406 26.4556C149.567 26.4556 150.616 26.2213 151.553 25.7528C152.49 25.2639 153.264 24.6528 153.875 23.9194L154.975 28.4111C154.058 29.1241 153.03 29.6537 151.889 30C150.748 30.3667 149.546 30.55 148.283 30.55ZM142.447 18.9694C143.486 18.7657 144.515 18.6639 145.533 18.6639H149.475C150.025 18.6639 150.545 18.6843 151.033 18.725C151.522 18.7454 151.991 18.8065 152.439 18.9083C152.133 17.7269 151.533 16.7796 150.636 16.0667C149.76 15.3537 148.701 14.9972 147.458 14.9972C146.236 14.9972 145.177 15.3639 144.281 16.0972C143.384 16.8306 142.773 17.788 142.447 18.9694Z" fill="#0D0E1D"/>
</svg>
