<svg width="143" height="44" viewBox="0 0 143 44" fill="none" xmlns="http://www.w3.org/2000/svg">
<path d="M43.3444 10.9917V6.5H62.2278V10.9917H55.3528V34H50.2194V10.9917H43.3444ZM70.545 34.55C68.5283 34.55 66.7357 34.1222 65.1672 33.2667C63.6191 32.4111 62.407 31.2398 61.5311 29.7528C60.6756 28.2454 60.2478 26.5444 60.2478 24.65C60.2478 22.8167 60.6654 21.187 61.5006 19.7611C62.3561 18.3352 63.507 17.2046 64.9533 16.3694C66.3996 15.5343 67.9987 15.1167 69.7506 15.1167C71.5431 15.1167 73.1422 15.5241 74.5478 16.3389C75.9737 17.1537 77.1043 18.2741 77.9394 19.7C78.7746 21.1056 79.1922 22.7046 79.1922 24.4972V26.2389H67.795C67.2857 26.2389 66.7867 26.2083 66.2978 26.1472C65.8089 26.0861 65.32 26.0148 64.8311 25.9333C65.0756 27.2574 65.7172 28.3472 66.7561 29.2028C67.795 30.038 69.0987 30.4556 70.6672 30.4556C71.8283 30.4556 72.8774 30.2213 73.8144 29.7528C74.7515 29.2639 75.5256 28.6528 76.1367 27.9194L77.2367 32.4111C76.32 33.1241 75.2913 33.6537 74.1506 34C73.0098 34.3667 71.808 34.55 70.545 34.55ZM64.7089 22.9694C65.7478 22.7657 66.7765 22.6639 67.795 22.6639H71.7367C72.2867 22.6639 72.8061 22.6843 73.295 22.725C73.7839 22.7454 74.2524 22.8065 74.7006 22.9083C74.395 21.7269 73.7941 20.7796 72.8978 20.0667C72.0219 19.3537 70.9626 18.9972 69.72 18.9972C68.4978 18.9972 67.4385 19.3639 66.5422 20.0972C65.6459 20.8306 65.0348 21.788 64.7089 22.9694ZM93.7332 34L86.186 23.9167L92.3888 15.6667H97.6443L91.5027 23.5194L99.4777 34H93.7332ZM81.6027 34V4.66667H86.3999V34H81.6027ZM107.933 34.55C106.65 34.55 105.438 34.2343 104.297 33.6028C103.156 32.9713 102.24 32.0648 101.547 30.8833C100.855 29.6815 100.508 28.225 100.508 26.5139V15.6667H105.306V25.8722C105.306 27.013 105.642 28.0213 106.314 28.8972C107.006 29.7528 107.964 30.1806 109.186 30.1806C110.205 30.1806 111.111 29.8241 111.906 29.1111C112.7 28.3778 113.097 27.3287 113.097 25.9639V15.6667H117.925V34H113.525V31.8C112.873 32.6963 112.058 33.3787 111.081 33.8472C110.103 34.3157 109.054 34.55 107.933 34.55ZM121.522 43.1667V15.6667H125.708V17.6222C126.462 16.8685 127.338 16.288 128.336 15.8806C129.334 15.4528 130.424 15.2389 131.606 15.2389C133.317 15.2389 134.865 15.6667 136.25 16.5222C137.635 17.3778 138.735 18.5389 139.55 20.0056C140.385 21.4519 140.803 23.0611 140.803 24.8333C140.803 26.5852 140.385 28.1944 139.55 29.6611C138.735 31.1074 137.635 32.2685 136.25 33.1444C134.865 34 133.317 34.4278 131.606 34.4278C130.567 34.4278 129.599 34.2648 128.703 33.9389C127.827 33.613 127.033 33.1648 126.32 32.5944V43.1667H121.522ZM131.025 30.1806C132.003 30.1806 132.879 29.9361 133.653 29.4472C134.447 28.9583 135.079 28.3167 135.547 27.5222C136.016 26.7074 136.25 25.8111 136.25 24.8333C136.25 23.8556 136.016 22.9694 135.547 22.175C135.079 21.3602 134.447 20.7083 133.653 20.2194C132.879 19.7306 132.013 19.4861 131.056 19.4861C130.078 19.4861 129.192 19.7306 128.397 20.2194C127.623 20.7083 127.002 21.3602 126.533 22.175C126.065 22.9694 125.831 23.8556 125.831 24.8333C125.831 25.8111 126.065 26.7074 126.533 27.5222C127.002 28.3167 127.623 28.9583 128.397 29.4472C129.192 29.9361 130.068 30.1806 131.025 30.1806Z" fill="white"/>
<path d="M36.7151 15.0841V15.0723C36.7151 14.5351 36.4398 14.0406 35.9944 13.7559L19.3355 0.34541C18.7637 -0.115059 17.9483 -0.115137 17.3762 0.345176L0.579365 13.8608C-0.193057 14.4654 -0.192979 15.691 0.579365 16.2955L5.18319 20L0.579287 23.7045C-0.193135 24.3092 -0.193057 25.5348 0.579287 26.1392L17.3762 39.6549C17.9481 40.1151 18.7637 40.1151 19.3355 39.6546L35.9944 26.2442C36.4397 25.9595 36.7151 25.4649 36.7151 24.9277V24.916C36.7151 24.3788 36.4398 23.8842 35.9944 23.5995L31.5229 20L35.9944 16.4004C36.4398 16.1158 36.7151 15.6213 36.7151 15.0841ZM29.0312 17.9942L19.3355 10.1892C18.7637 9.72869 17.9483 9.72869 17.3762 10.1889L11.6731 14.778C10.1097 16.142 11.9669 18.4476 13.6322 17.2127L18.3555 13.412L32.6535 24.9219L18.3555 36.4318L4.05132 24.9219L7.67569 22.0056L17.3762 29.8111C17.9482 30.2713 18.7637 30.2713 19.3355 29.8109L25.0387 25.2199C25.7108 24.6788 25.8172 23.6952 25.276 23.0229C24.735 22.3507 23.7514 22.2445 23.0791 22.7856L18.3555 26.588L4.05132 15.0781L18.3555 3.56822L32.6535 15.0781L29.0312 17.9942Z" fill="white"/>
</svg>
