<svg xmlns="http://www.w3.org/2000/svg" xmlns:xlink="http://www.w3.org/1999/xlink" width="0" height="0" style="display:none;"><symbol viewBox="0 0 24 24" id="arrow-right-up-line"><path d="M16.0037 9.41421L7.39712 18.0208L5.98291 16.6066L14.5895 8H7.00373V6H18.0037V17H16.0037V9.41421Z"></path></symbol><symbol viewBox="0 0 24 24" id="arrow-left-up-line"><path d="M9.41421 8L18.0208 16.6066L16.6066 18.0208L8 9.41421V17H6V6H17V8H9.41421Z"></path></symbol><symbol viewBox="0 0 24 24" id="arrow-right-line"><path d="M16.1716 10.9999L10.8076 5.63589L12.2218 4.22168L20 11.9999L12.2218 19.778L10.8076 18.3638L16.1716 12.9999H4V10.9999H16.1716Z"></path></symbol><symbol viewBox="0 0 24 24" id="arrow-right-s-line"><path d="M13.1717 12.0007L8.22192 7.05093L9.63614 5.63672L16.0001 12.0007L9.63614 18.3646L8.22192 16.9504L13.1717 12.0007Z"></path></symbol><symbol viewBox="0 0 24 24" id="arrow-left-s-line"><path d="M10.8284 12.0007L15.7782 16.9504L14.364 18.3646L8 12.0007L14.364 5.63672L15.7782 7.05093L10.8284 12.0007Z"></path></symbol><symbol viewBox="0 0 24 24" id="map-pin-2-fill"><path d="M18.364 17.364L12 23.7279L5.63604 17.364C2.12132 13.8492 2.12132 8.15076 5.63604 4.63604C9.15076 1.12132 14.8492 1.12132 18.364 4.63604C21.8787 8.15076 21.8787 13.8492 18.364 17.364ZM12 13C13.1046 13 14 12.1046 14 11C14 9.89543 13.1046 9 12 9C10.8954 9 10 9.89543 10 11C10 12.1046 10.8954 13 12 13Z"></path></symbol><symbol viewBox="0 0 24 24" id="phone-fill"><path d="M21 16.42V19.9561C21 20.4811 20.5941 20.9167 20.0705 20.9537C19.6331 20.9846 19.2763 21 19 21C10.1634 21 3 13.8366 3 5C3 4.72371 3.01545 4.36687 3.04635 3.9295C3.08337 3.40588 3.51894 3 4.04386 3H7.5801C7.83678 3 8.05176 3.19442 8.07753 3.4498C8.10067 3.67907 8.12218 3.86314 8.14207 4.00202C8.34435 5.41472 8.75753 6.75936 9.3487 8.00303C9.44359 8.20265 9.38171 8.44159 9.20185 8.57006L7.04355 10.1118C8.35752 13.1811 10.8189 15.6425 13.8882 16.9565L15.4271 14.8019C15.5572 14.6199 15.799 14.5573 16.001 14.6532C17.2446 15.2439 18.5891 15.6566 20.0016 15.8584C20.1396 15.8782 20.3225 15.8995 20.5502 15.9225C20.8056 15.9483 21 16.1633 21 16.42Z"></path></symbol><symbol viewBox="0 0 24 24" id="phone-line"><path d="M9.36556 10.6821C10.302 12.3288 11.6712 13.698 13.3179 14.6344L14.2024 13.3961C14.4965 12.9845 15.0516 12.8573 15.4956 13.0998C16.9024 13.8683 18.4571 14.3353 20.0789 14.4637C20.599 14.5049 21 14.9389 21 15.4606V19.9234C21 20.4361 20.6122 20.8657 20.1022 20.9181C19.5723 20.9726 19.0377 21 18.5 21C9.93959 21 3 14.0604 3 5.5C3 4.96227 3.02742 4.42771 3.08189 3.89776C3.1343 3.38775 3.56394 3 4.07665 3H8.53942C9.0611 3 9.49513 3.40104 9.5363 3.92109C9.66467 5.54288 10.1317 7.09764 10.9002 8.50444C11.1427 8.9484 11.0155 9.50354 10.6039 9.79757L9.36556 10.6821ZM6.84425 10.0252L8.7442 8.66809C8.20547 7.50514 7.83628 6.27183 7.64727 5H5.00907C5.00303 5.16632 5 5.333 5 5.5C5 12.9558 11.0442 19 18.5 19C18.667 19 18.8337 18.997 19 18.9909V16.3527C17.7282 16.1637 16.4949 15.7945 15.3319 15.2558L13.9748 17.1558C13.4258 16.9425 12.8956 16.6915 12.3874 16.4061L12.3293 16.373C10.3697 15.2587 8.74134 13.6303 7.627 11.6707L7.59394 11.6126C7.30849 11.1044 7.05754 10.5742 6.84425 10.0252Z"></path></symbol><symbol viewBox="0 0 24 24" id="mail-fill"><path d="M3 3H21C21.5523 3 22 3.44772 22 4V20C22 20.5523 21.5523 21 21 21H3C2.44772 21 2 20.5523 2 20V4C2 3.44772 2.44772 3 3 3ZM12.0606 11.6829L5.64722 6.2377L4.35278 7.7623L12.0731 14.3171L19.6544 7.75616L18.3456 6.24384L12.0606 11.6829Z"></path></symbol><symbol viewBox="0 0 24 24" id="search-line"><path d="M18.031 16.6168L22.3137 20.8995L20.8995 22.3137L16.6168 18.031C15.0769 19.263 13.124 20 11 20C6.032 20 2 15.968 2 11C2 6.032 6.032 2 11 2C15.968 2 20 6.032 20 11C20 13.124 19.263 15.0769 18.031 16.6168ZM16.0247 15.8748C17.2475 14.6146 18 12.8956 18 11C18 7.1325 14.8675 4 11 4C7.1325 4 4 7.1325 4 11C4 14.8675 7.1325 18 11 18C12.8956 18 14.6146 17.2475 15.8748 16.0247L16.0247 15.8748Z"></path></symbol><symbol viewBox="0 0 24 24" id="check-line"><path d="M9.9997 15.1709L19.1921 5.97852L20.6063 7.39273L9.9997 17.9993L3.63574 11.6354L5.04996 10.2212L9.9997 15.1709Z"></path></symbol><symbol viewBox="0 0 24 24" id="linkedin-fill"><path d="M6.94048 4.99993C6.94011 5.81424 6.44608 6.54702 5.69134 6.85273C4.9366 7.15845 4.07187 6.97605 3.5049 6.39155C2.93793 5.80704 2.78195 4.93715 3.1105 4.19207C3.43906 3.44699 4.18654 2.9755 5.00048 2.99993C6.08155 3.03238 6.94097 3.91837 6.94048 4.99993ZM7.00048 8.47993H3.00048V20.9999H7.00048V8.47993ZM13.3205 8.47993H9.34048V20.9999H13.2805V14.4299C13.2805 10.7699 18.0505 10.4299 18.0505 14.4299V20.9999H22.0005V13.0699C22.0005 6.89993 14.9405 7.12993 13.2805 10.1599L13.3205 8.47993Z"></path></symbol><symbol viewBox="0 0 24 24" id="linkedin-box-fill"><path d="M18.3362 18.339H15.6707V14.1622C15.6707 13.1662 15.6505 11.8845 14.2817 11.8845C12.892 11.8845 12.6797 12.9683 12.6797 14.0887V18.339H10.0142V9.75H12.5747V10.9207H12.6092C12.967 10.2457 13.837 9.53325 15.1367 9.53325C17.8375 9.53325 18.337 11.3108 18.337 13.6245V18.339H18.3362ZM7.00373 8.57475C6.14573 8.57475 5.45648 7.88025 5.45648 7.026C5.45648 6.1725 6.14648 5.47875 7.00373 5.47875C7.85873 5.47875 8.55173 6.1725 8.55173 7.026C8.55173 7.88025 7.85798 8.57475 7.00373 8.57475ZM8.34023 18.339H5.66723V9.75H8.34023V18.339ZM19.6697 3H4.32923C3.59498 3 3.00098 3.5805 3.00098 4.29675V19.7033C3.00098 20.4202 3.59498 21 4.32923 21H19.6675C20.401 21 21.001 20.4202 21.001 19.7033V4.29675C21.001 3.5805 20.401 3 19.6675 3H19.6697Z"></path></symbol><symbol viewBox="0 0 24 24" id="twitter-x-line"><path d="M8 2H1L9.26086 13.0145L1.44995 21.9999H4.09998L10.4883 14.651L16 22H23L14.3917 10.5223L21.8001 2H19.1501L13.1643 8.88578L8 2ZM17 20L5 4H7L19 20H17Z"></path></symbol><symbol viewBox="0 0 24 24" id="twitter-fill"><path d="M22.2125 5.65605C21.4491 5.99375 20.6395 6.21555 19.8106 6.31411C20.6839 5.79132 21.3374 4.9689 21.6493 4.00005C20.8287 4.48761 19.9305 4.83077 18.9938 5.01461C18.2031 4.17106 17.098 3.69303 15.9418 3.69434C13.6326 3.69434 11.7597 5.56661 11.7597 7.87683C11.7597 8.20458 11.7973 8.52242 11.8676 8.82909C8.39047 8.65404 5.31007 6.99005 3.24678 4.45941C2.87529 5.09767 2.68005 5.82318 2.68104 6.56167C2.68104 8.01259 3.4196 9.29324 4.54149 10.043C3.87737 10.022 3.22788 9.84264 2.64718 9.51973C2.64654 9.5373 2.64654 9.55487 2.64654 9.57148C2.64654 11.5984 4.08819 13.2892 6.00199 13.6731C5.6428 13.7703 5.27232 13.8194 4.90022 13.8191C4.62997 13.8191 4.36771 13.7942 4.11279 13.7453C4.64531 15.4065 6.18886 16.6159 8.0196 16.6491C6.53813 17.8118 4.70869 18.4426 2.82543 18.4399C2.49212 18.4402 2.15909 18.4205 1.82812 18.3811C3.74004 19.6102 5.96552 20.2625 8.23842 20.2601C15.9316 20.2601 20.138 13.8875 20.138 8.36111C20.138 8.1803 20.1336 7.99886 20.1256 7.81997C20.9443 7.22845 21.651 6.49567 22.2125 5.65605Z"></path></symbol><symbol viewBox="0 0 24 24" id="instagram-line"><path d="M12.001 9C10.3436 9 9.00098 10.3431 9.00098 12C9.00098 13.6573 10.3441 15 12.001 15C13.6583 15 15.001 13.6569 15.001 12C15.001 10.3427 13.6579 9 12.001 9ZM12.001 7C14.7614 7 17.001 9.2371 17.001 12C17.001 14.7605 14.7639 17 12.001 17C9.24051 17 7.00098 14.7629 7.00098 12C7.00098 9.23953 9.23808 7 12.001 7ZM18.501 6.74915C18.501 7.43926 17.9402 7.99917 17.251 7.99917C16.5609 7.99917 16.001 7.4384 16.001 6.74915C16.001 6.0599 16.5617 5.5 17.251 5.5C17.9393 5.49913 18.501 6.0599 18.501 6.74915ZM12.001 4C9.5265 4 9.12318 4.00655 7.97227 4.0578C7.18815 4.09461 6.66253 4.20007 6.17416 4.38967C5.74016 4.55799 5.42709 4.75898 5.09352 5.09255C4.75867 5.4274 4.55804 5.73963 4.3904 6.17383C4.20036 6.66332 4.09493 7.18811 4.05878 7.97115C4.00703 9.0752 4.00098 9.46105 4.00098 12C4.00098 14.4745 4.00753 14.8778 4.05877 16.0286C4.0956 16.8124 4.2012 17.3388 4.39034 17.826C4.5591 18.2606 4.7605 18.5744 5.09246 18.9064C5.42863 19.2421 5.74179 19.4434 6.17187 19.6094C6.66619 19.8005 7.19148 19.9061 7.97212 19.9422C9.07618 19.9939 9.46203 20 12.001 20C14.4755 20 14.8788 19.9934 16.0296 19.9422C16.8117 19.9055 17.3385 19.7996 17.827 19.6106C18.2604 19.4423 18.5752 19.2402 18.9074 18.9085C19.2436 18.5718 19.4445 18.2594 19.6107 17.8283C19.8013 17.3358 19.9071 16.8098 19.9432 16.0289C19.9949 14.9248 20.001 14.5389 20.001 12C20.001 9.52552 19.9944 9.12221 19.9432 7.97137C19.9064 7.18906 19.8005 6.66149 19.6113 6.17318C19.4434 5.74038 19.2417 5.42635 18.9084 5.09255C18.573 4.75715 18.2616 4.55693 17.8271 4.38942C17.338 4.19954 16.8124 4.09396 16.0298 4.05781C14.9258 4.00605 14.5399 4 12.001 4ZM12.001 2C14.7176 2 15.0568 2.01 16.1235 2.06C17.1876 2.10917 17.9135 2.2775 18.551 2.525C19.2101 2.77917 19.7668 3.1225 20.3226 3.67833C20.8776 4.23417 21.221 4.7925 21.476 5.45C21.7226 6.08667 21.891 6.81333 21.941 7.8775C21.9885 8.94417 22.001 9.28333 22.001 12C22.001 14.7167 21.991 15.0558 21.941 16.1225C21.8918 17.1867 21.7226 17.9125 21.476 18.55C21.2218 19.2092 20.8776 19.7658 20.3226 20.3217C19.7668 20.8767 19.2076 21.22 18.551 21.475C17.9135 21.7217 17.1876 21.89 16.1235 21.94C15.0568 21.9875 14.7176 22 12.001 22C9.28431 22 8.94514 21.99 7.87848 21.94C6.81431 21.8908 6.08931 21.7217 5.45098 21.475C4.79264 21.2208 4.23514 20.8767 3.67931 20.3217C3.12348 19.7658 2.78098 19.2067 2.52598 18.55C2.27848 17.9125 2.11098 17.1867 2.06098 16.1225C2.01348 15.0558 2.00098 14.7167 2.00098 12C2.00098 9.28333 2.01098 8.94417 2.06098 7.8775C2.11014 6.8125 2.27848 6.0875 2.52598 5.45C2.78014 4.79167 3.12348 4.23417 3.67931 3.67833C4.23514 3.1225 4.79348 2.78 5.45098 2.525C6.08848 2.2775 6.81348 2.11 7.87848 2.06C8.94514 2.0125 9.28431 2 12.001 2Z"></path></symbol><symbol viewBox="0 0 24 24" id="facebook-fill"><path d="M14 13.5H16.5L17.5 9.5H14V7.5C14 6.47062 14 5.5 16 5.5H17.5V2.1401C17.1743 2.09685 15.943 2 14.6429 2C11.9284 2 10 3.65686 10 6.69971V9.5H7V13.5H10V22H14V13.5Z"></path></symbol><symbol viewBox="0 0 24 24" id="facebook-circle-fill"><path d="M12.001 2C6.47813 2 2.00098 6.47715 2.00098 12C2.00098 16.9913 5.65783 21.1283 10.4385 21.8785V14.8906H7.89941V12H10.4385V9.79688C10.4385 7.29063 11.9314 5.90625 14.2156 5.90625C15.3097 5.90625 16.4541 6.10156 16.4541 6.10156V8.5625H15.1931C13.9509 8.5625 13.5635 9.33334 13.5635 10.1242V12H16.3369L15.8936 14.8906H13.5635V21.8785C18.3441 21.1283 22.001 16.9913 22.001 12C22.001 6.47715 17.5238 2 12.001 2Z"></path></symbol><symbol viewBox="0 0 24 24" id="send-plane-fill"><path d="M1.94607 9.31543C1.42353 9.14125 1.4194 8.86022 1.95682 8.68108L21.043 2.31901C21.5715 2.14285 21.8746 2.43866 21.7265 2.95694L16.2733 22.0432C16.1223 22.5716 15.8177 22.59 15.5944 22.0876L11.9999 14L17.9999 6.00005L9.99992 12L1.94607 9.31543Z"></path></symbol><symbol viewBox="0 0 24 24" id="star-s-fill"><path d="M11.9998 17L6.12197 20.5902L7.72007 13.8906L2.48926 9.40983L9.35479 8.85942L11.9998 2.5L14.6449 8.85942L21.5104 9.40983L16.2796 13.8906L17.8777 20.5902L11.9998 17Z"></path></symbol><symbol viewBox="0 0 24 24" id="add-line"><path d="M11 11V5H13V11H19V13H13V19H11V13H5V11H11Z"></path></symbol><symbol viewBox="0 0 24 24" id="subtract-line"><path d="M5 11V13H19V11H5Z"></path></symbol><symbol viewBox="0 0 24 24" id="time-fill"><path d="M12 22C6.47715 22 2 17.5228 2 12C2 6.47715 6.47715 2 12 2C17.5228 2 22 6.47715 22 12C22 17.5228 17.5228 22 12 22ZM13 12V7H11V14H17V12H13Z"></path></symbol><symbol viewBox="0 0 24 24" id="time-line"><path d="M12 22C6.47715 22 2 17.5228 2 12C2 6.47715 6.47715 2 12 2C17.5228 2 22 6.47715 22 12C22 17.5228 17.5228 22 12 22ZM12 20C16.4183 20 20 16.4183 20 12C20 7.58172 16.4183 4 12 4C7.58172 4 4 7.58172 4 12C4 16.4183 7.58172 20 12 20ZM13 12H17V14H11V7H13V12Z"></path></symbol><symbol viewBox="0 0 24 24" id="share-fill"><path d="M13.5759 17.2714L8.46576 14.484C7.83312 15.112 6.96187 15.5 6 15.5C4.067 15.5 2.5 13.933 2.5 12C2.5 10.067 4.067 8.5 6 8.5C6.96181 8.5 7.83301 8.88796 8.46564 9.51593L13.5759 6.72855C13.5262 6.49354 13.5 6.24983 13.5 6C13.5 4.067 15.067 2.5 17 2.5C18.933 2.5 20.5 4.067 20.5 6C20.5 7.933 18.933 9.5 17 9.5C16.0381 9.5 15.1669 9.11201 14.5343 8.48399L9.42404 11.2713C9.47382 11.5064 9.5 11.7501 9.5 12C9.5 12.2498 9.47383 12.4935 9.42408 12.7285L14.5343 15.516C15.167 14.888 16.0382 14.5 17 14.5C18.933 14.5 20.5 16.067 20.5 18C20.5 19.933 18.933 21.5 17 21.5C15.067 21.5 13.5 19.933 13.5 18C13.5 17.7502 13.5262 17.5064 13.5759 17.2714Z"></path></symbol><symbol viewBox="0 0 24 24" id="calendar-fill"><path d="M2 11H22V20C22 20.5523 21.5523 21 21 21H3C2.44772 21 2 20.5523 2 20V11ZM17 3H21C21.5523 3 22 3.44772 22 4V9H2V4C2 3.44772 2.44772 3 3 3H7V1H9V3H15V1H17V3Z"></path></symbol><symbol viewBox="0 0 24 24" id="arrow-up-s-line"><path d="M11.9999 10.8284L7.0502 15.7782L5.63599 14.364L11.9999 8L18.3639 14.364L16.9497 15.7782L11.9999 10.8284Z"></path></symbol><symbol viewBox="0 0 24 24" id="arrow-down-s-line"><path d="M11.9999 13.1714L16.9497 8.22168L18.3639 9.63589L11.9999 15.9999L5.63599 9.63589L7.0502 8.22168L11.9999 13.1714Z"></path></symbol><symbol viewBox="0 0 24 24" id="chat-2-fill"><path d="M14.45 19L12 22.5L9.55 19H3C2.44772 19 2 18.5523 2 18V4C2 3.44772 2.44772 3 3 3H21C21.5523 3 22 3.44772 22 4V18C22 18.5523 21.5523 19 21 19H14.45Z"></path></symbol><symbol viewBox="0 0 24 24" id="close-line"><path d="M11.9997 10.5865L16.9495 5.63672L18.3637 7.05093L13.4139 12.0007L18.3637 16.9504L16.9495 18.3646L11.9997 13.4149L7.04996 18.3646L5.63574 16.9504L10.5855 12.0007L5.63574 7.05093L7.04996 5.63672L11.9997 10.5865Z"></path></symbol><symbol viewBox="0 0 24 24" id="bookmark-fill"><path d="M5 2H19C19.5523 2 20 2.44772 20 3V22.1433C20 22.4194 19.7761 22.6434 19.5 22.6434C19.4061 22.6434 19.314 22.6168 19.2344 22.5669L12 18.0313L4.76559 22.5669C4.53163 22.7136 4.22306 22.6429 4.07637 22.4089C4.02647 22.3293 4 22.2373 4 22.1433V3C4 2.44772 4.44772 2 5 2Z"></path></symbol><symbol viewBox="0 0 24 24" id="instagram-fill"><path d="M13.0281 2.00073C14.1535 2.00259 14.7238 2.00855 15.2166 2.02322L15.4107 2.02956C15.6349 2.03753 15.8561 2.04753 16.1228 2.06003C17.1869 2.1092 17.9128 2.27753 18.5503 2.52503C19.2094 2.7792 19.7661 3.12253 20.3219 3.67837C20.8769 4.2342 21.2203 4.79253 21.4753 5.45003C21.7219 6.0867 21.8903 6.81337 21.9403 7.87753C21.9522 8.1442 21.9618 8.3654 21.9697 8.58964L21.976 8.78373C21.9906 9.27647 21.9973 9.84686 21.9994 10.9723L22.0002 11.7179C22.0003 11.809 22.0003 11.903 22.0003 12L22.0002 12.2821L21.9996 13.0278C21.9977 14.1532 21.9918 14.7236 21.9771 15.2163L21.9707 15.4104C21.9628 15.6347 21.9528 15.8559 21.9403 16.1225C21.8911 17.1867 21.7219 17.9125 21.4753 18.55C21.2211 19.2092 20.8769 19.7659 20.3219 20.3217C19.7661 20.8767 19.2069 21.22 18.5503 21.475C17.9128 21.7217 17.1869 21.89 16.1228 21.94C15.8561 21.9519 15.6349 21.9616 15.4107 21.9694L15.2166 21.9757C14.7238 21.9904 14.1535 21.997 13.0281 21.9992L12.2824 22C12.1913 22 12.0973 22 12.0003 22L11.7182 22L10.9725 21.9993C9.8471 21.9975 9.27672 21.9915 8.78397 21.9768L8.58989 21.9705C8.36564 21.9625 8.14444 21.9525 7.87778 21.94C6.81361 21.8909 6.08861 21.7217 5.45028 21.475C4.79194 21.2209 4.23444 20.8767 3.67861 20.3217C3.12278 19.7659 2.78028 19.2067 2.52528 18.55C2.27778 17.9125 2.11028 17.1867 2.06028 16.1225C2.0484 15.8559 2.03871 15.6347 2.03086 15.4104L2.02457 15.2163C2.00994 14.7236 2.00327 14.1532 2.00111 13.0278L2.00098 10.9723C2.00284 9.84686 2.00879 9.27647 2.02346 8.78373L2.02981 8.58964C2.03778 8.3654 2.04778 8.1442 2.06028 7.87753C2.10944 6.81253 2.27778 6.08753 2.52528 5.45003C2.77944 4.7917 3.12278 4.2342 3.67861 3.67837C4.23444 3.12253 4.79278 2.78003 5.45028 2.52503C6.08778 2.27753 6.81278 2.11003 7.87778 2.06003C8.14444 2.04816 8.36564 2.03847 8.58989 2.03062L8.78397 2.02433C9.27672 2.00969 9.8471 2.00302 10.9725 2.00086L13.0281 2.00073ZM12.0003 7.00003C9.23738 7.00003 7.00028 9.23956 7.00028 12C7.00028 14.7629 9.23981 17 12.0003 17C14.7632 17 17.0003 14.7605 17.0003 12C17.0003 9.23713 14.7607 7.00003 12.0003 7.00003ZM12.0003 9.00003C13.6572 9.00003 15.0003 10.3427 15.0003 12C15.0003 13.6569 13.6576 15 12.0003 15C10.3434 15 9.00028 13.6574 9.00028 12C9.00028 10.3431 10.3429 9.00003 12.0003 9.00003ZM17.2503 5.50003C16.561 5.50003 16.0003 6.05994 16.0003 6.74918C16.0003 7.43843 16.5602 7.9992 17.2503 7.9992C17.9395 7.9992 18.5003 7.4393 18.5003 6.74918C18.5003 6.05994 17.9386 5.49917 17.2503 5.50003Z"></path></symbol></svg>