<svg width="18" height="21" viewBox="0 0 18 21" fill="none" xmlns="http://www.w3.org/2000/svg">
<path d="M4.41667 7.33292V5.49959C4.41667 2.96829 6.4687 0.91626 9.00002 0.91626C11.5313 0.91626 13.5834 2.96829 13.5834 5.49959V7.33292H16.3334C16.8396 7.33292 17.25 7.74333 17.25 8.24959V19.2496C17.25 19.7558 16.8396 20.1663 16.3334 20.1663H1.66667C1.16041 20.1663 0.75 19.7558 0.75 19.2496V8.24959C0.75 7.74333 1.16041 7.33292 1.66667 7.33292H4.41667ZM4.41667 9.16625H2.58333V18.333H15.4167V9.16625H13.5834V10.9996H11.75V9.16625H6.25V10.9996H4.41667V9.16625ZM6.25 7.33292H11.75V5.49959C11.75 3.98081 10.5188 2.74959 9.00002 2.74959C7.48119 2.74959 6.25 3.98081 6.25 5.49959V7.33292Z" fill="white"/>
</svg>
